<svg width="32" height="32" viewBox="0 0 32 32" fill="none" xmlns="http://www.w3.org/2000/svg">
<path d="M8.00008 5.33329H24.0001C26.9456 5.33329 29.3334 7.72111 29.3334 10.6666V17.3333C29.3334 20.2788 26.9456 22.6666 24.0001 22.6666H13.3334C10.3879 22.6666 8.00008 20.2788 8.00008 17.3333V5.33329ZM8.00008 5.33329C8.00008 3.86053 6.80617 2.66663 5.33341 2.66663H2.66675" stroke="#9FA324" stroke-width="2" stroke-linecap="round" stroke-linejoin="round"/>
<path d="M14.6667 27.3334C14.6667 28.4379 13.7713 29.3334 12.6667 29.3334C11.5622 29.3334 10.6667 28.4379 10.6667 27.3334C10.6667 26.2288 11.5622 25.3334 12.6667 25.3334C13.7713 25.3334 14.6667 26.2288 14.6667 27.3334Z" stroke="#9FA324" stroke-width="2"/>
<path d="M26.6667 27.3334C26.6667 28.4379 25.7713 29.3334 24.6667 29.3334C23.5622 29.3334 22.6667 28.4379 22.6667 27.3334C22.6667 26.2288 23.5622 25.3334 24.6667 25.3334C25.7713 25.3334 26.6667 26.2288 26.6667 27.3334Z" stroke="#9FA324" stroke-width="2"/>
<path d="M14.6667 16C17.8083 17.7871 19.5302 17.7684 22.6667 16" stroke="#9FA324" stroke-width="2" stroke-linecap="round" stroke-linejoin="round"/>
</svg>
