<svg width="32" height="32" viewBox="0 0 32 32" fill="none" xmlns="http://www.w3.org/2000/svg">
<path d="M21.6568 14.1144C20.6154 15.1558 18.9269 15.1558 17.8855 14.1144C16.8441 13.073 16.8441 11.3846 17.8855 10.3432C18.9269 9.30178 20.6154 9.30178 21.6568 10.3432C22.6982 11.3846 22.6982 13.073 21.6568 14.1144Z" stroke="#9FA324" stroke-width="1.5"/>
<path d="M12.5486 6.25218C13.6645 5.1363 15.2057 4.55719 16.7678 4.66686L22.0536 5.03796C24.6928 5.22325 26.7768 7.30725 26.9621 9.94653L27.3332 15.2323C27.4429 16.7944 26.8638 18.3356 25.7479 19.4515L16.9941 28.2053C14.883 30.3164 11.4831 30.3394 9.40034 28.2566L3.74349 22.5997C1.66069 20.517 1.68365 17.1171 3.79477 15.006L12.5486 6.25218Z" stroke="#9FA324" stroke-width="1.5" stroke-linejoin="round"/>
</svg>
